<svg width="280" height="345" viewBox="370 105 280 345" fill="none" xmlns="http://www.w3.org/2000/svg">
<path d="M495.493 347.637L509.705 347.661L509.645 393.931C512.16 393.942 514.865 393.828 517.4 393.77C524.2 387.365 531.045 377.909 538.265 371.016L555.69 371.007C547.625 379.423 538.88 389.786 530.83 398.568C534.655 404.287 544.43 415.718 549.105 421.54L558.16 432.971C552.135 433.06 545.985 433.02 539.95 433.04C533.115 424.298 526.16 415.65 519.09 407.097L509.675 406.935C509.495 415.364 509.695 424.496 509.715 432.981L495.462 433.029L495.493 347.637Z" fill="#112536"/>
<path d="M609.54 371.034L624.02 371.029L624.04 383.75C624.125 396.435 626.04 416.086 616.36 425.675C605.415 436.512 581.13 436.497 570.28 425.264C561.575 416.253 562.805 402.838 562.86 391.245L562.97 371.027L577.485 371.063C577.57 383.299 576.665 396.056 578.18 408.232C579.73 420.684 596.08 424.544 604.545 416.509C610.51 410.848 609.585 400.689 609.58 393.117C609.575 385.849 609.54 378.392 609.54 371.034Z" fill="#112536"/>
<path d="M401.353 371.062L453.528 371.053L453.461 382.994C450.405 386.804 444.612 392.406 440.977 396.163L417.575 420.415L454.307 420.413C454.327 424.611 454.314 428.809 454.269 433.007L399.893 433.056C399.763 428.669 399.799 424.813 399.917 420.423C402.509 417.002 409.347 410.446 412.506 407.265L436.109 383.535C424.721 383.331 412.654 383.505 401.22 383.506L401.353 371.062Z" fill="#112536"/>
<path d="M465.963 371.029L480.464 371.071L480.457 433.014L465.988 433.016L465.963 371.029Z" fill="#112536"/>
<path d="M470.482 345.605C473.506 344.668 476.799 345.43 479.105 347.598C481.411 349.767 482.373 353.008 481.623 356.083C480.874 359.158 478.529 361.593 475.484 362.458C470.853 363.774 466.025 361.119 464.655 356.503C463.285 351.888 465.883 347.029 470.482 345.605Z" fill="#112536"/>
<path d="M470.033 195.912C478.571 194.911 485.579 215.71 490.119 215.903C490.822 215.161 490.665 215.108 491.513 214.838C490.418 218.027 480.506 231.577 478.143 235.189C465.349 254.751 450.318 274.419 437.626 293.92L537.06 293.984C541.215 293.984 569.72 294.413 572.03 293.62C572.795 292.614 573.54 291.596 574.275 290.566C580.545 279.809 592.425 266.019 598.235 255.688C592.675 247.484 587.04 239.334 581.33 231.238C586.305 224.146 594.235 213.489 598.465 206.3C609.49 222.583 621.205 238.538 632.19 254.814L606.615 292.193C604.13 295.872 594.09 311.683 591.855 313.591C590.335 316.362 588.32 319.124 586.515 321.737C581.19 322.051 573.455 321.81 567.985 321.801L533.1 321.74L424.95 321.638C419.557 311.773 412.179 300.114 406.378 290.262C423.799 265.161 452.348 224.305 470.206 197.381C470.139 196.81 470.081 196.32 470.033 195.912Z" fill="#087DA7"/>
<path d="M470.033 195.912C478.571 194.911 485.579 215.71 490.119 215.903C490.822 215.161 490.665 215.108 491.513 214.838C490.418 218.027 480.506 231.577 478.143 235.189C465.349 254.751 450.318 274.419 437.626 293.92L537.06 293.984C541.215 293.984 569.72 294.413 572.03 293.62C572.795 292.614 573.54 291.596 574.275 290.566C574.09 292.084 574.035 292.686 573.045 293.925C571.175 295.147 545.81 294.512 541.87 294.516L467.32 294.471C466.201 294.478 463.667 294.345 463.362 295.305L464.078 296.613L463.951 297.001C462.519 301.533 465.838 305.533 467.226 309.98C467.938 312.263 470.342 319.844 472.734 320.121C487.31 321.809 502.895 320.943 517.68 320.885L585.905 321C587.345 318.758 589.56 314.617 591.855 313.591C590.335 316.362 588.32 319.124 586.515 321.737C581.19 322.051 573.455 321.81 567.985 321.801L533.1 321.74L424.95 321.638C419.557 311.773 412.179 300.114 406.378 290.262C423.799 265.161 452.348 224.305 470.206 197.381C470.139 196.81 470.081 196.32 470.033 195.912Z" fill="#087DA7"/>
<path d="M438.383 125.612L446.395 125.654L599.84 125.607C605.78 135.935 612.865 147.128 618.365 157.505C614.65 162.626 582.875 209.013 581.895 209.563C581.65 207.959 583.27 207.44 582.345 205.961C578.44 199.7 567.505 193.731 566.83 185.538C565.38 185.279 567.045 185.998 564.355 186.927C570.835 176.181 580.375 164.485 587.34 153.519C549.43 153.635 507.45 154.544 469.828 153.516C468.372 153.727 455.143 153.697 453.171 153.724C444.988 166.052 434.075 180.548 426.596 192.619C429.216 197.351 439.665 211.258 443.266 216.289C437.608 223.973 431.687 233.033 426.233 240.975C414.64 225.14 403.302 209.12 392.222 192.921L438.383 125.612Z" fill="#4A56E2"/>
<path d="M446.395 125.654L599.84 125.607C605.78 135.935 612.865 147.128 618.365 157.505C614.65 162.626 582.875 209.013 581.895 209.563C581.65 207.959 583.27 207.44 582.345 205.961C578.44 199.7 567.505 193.731 566.83 185.538C565.38 185.279 567.045 185.998 564.355 186.927C570.835 176.181 580.375 164.485 587.34 153.519C549.43 153.635 507.45 154.544 469.828 153.516C473.85 151.425 507.96 153.798 514.78 153.023C519 152.544 526.455 153.884 531.025 152.623C530.105 152.616 528.93 152.518 528.215 151.669C523.295 145.458 517.62 136.436 516.21 128.679C516.17 128.437 515.955 126.698 515.55 126.688C498.469 126.287 481.242 126.848 464.124 126.601C460.357 126.547 449.483 127.141 446.395 125.654Z" fill="#4A56E2"/>
<path d="M564.355 186.926C567.045 185.998 565.38 185.278 566.83 185.538C567.505 193.731 578.44 199.7 582.345 205.96C583.27 207.439 581.65 207.958 581.895 209.563C580.54 212.266 575.975 218.576 574.155 221.322C567.67 231.096 560.155 240.816 553.905 250.712C559.07 255.106 564.67 259.385 570.015 263.589C564.1 266.065 555.14 268.826 548.895 270.914C535.54 275.307 522.24 279.862 508.995 284.577L517.24 220.795C522.03 224.15 528.045 229.153 532.7 232.847C542.685 218.199 553.83 201.077 564.355 186.926Z" fill="#4A56E2"/>
<path d="M455.326 184.274C474.585 177.337 497.176 170.737 515.655 163.52L510.185 203.613C509.21 210.755 507.69 220.722 507.34 227.841C502.705 223.896 496.307 218.157 491.513 214.838C490.665 215.108 490.823 215.161 490.12 215.903C485.579 215.71 478.571 194.911 470.033 195.912C467.163 194.646 458.3 186.835 455.326 184.274Z" fill="#087DA7"/>
</svg>
